<svg width="334" height="118" viewBox="0 0 334 118" fill="none" xmlns="http://www.w3.org/2000/svg">
<g clip-path="url(#clip0_203_745)">
<rect width="334" height="118" rx="30" fill="#FFFF00"/>
<path d="M42.6939 24.7273V32H41.522L38.0952 27.0462H38.0348V32H36.7173V24.7273H37.8963L41.3196 29.6847H41.3835V24.7273H42.6939ZM47.5492 29.706V26.5455H48.8347V32H47.5882V31.0305H47.5314C47.4083 31.3359 47.2059 31.5857 46.9242 31.7798C46.6448 31.974 46.3004 32.071 45.8908 32.071C45.5333 32.071 45.2173 31.9917 44.9426 31.8331C44.6704 31.6721 44.4573 31.4389 44.3034 31.1335C44.1496 30.8258 44.0726 30.4541 44.0726 30.0185V26.5455H45.3581V29.8196C45.3581 30.1652 45.4528 30.4399 45.6422 30.6435C45.8316 30.8471 46.0802 30.9489 46.388 30.9489C46.5774 30.9489 46.7608 30.9027 46.9384 30.8104C47.1159 30.718 47.2615 30.5807 47.3752 30.3984C47.4912 30.2138 47.5492 29.983 47.5492 29.706ZM52.5714 32.1065C52.0245 32.1065 51.5522 31.9929 51.1545 31.7656C50.7591 31.536 50.4549 31.2116 50.2418 30.7926C50.0288 30.3712 49.9222 29.8752 49.9222 29.3047C49.9222 28.7436 50.0288 28.2512 50.2418 27.8274C50.4573 27.4013 50.7579 27.0698 51.1438 26.8331C51.5297 26.594 51.9831 26.4744 52.5039 26.4744C52.8401 26.4744 53.1573 26.5289 53.4556 26.6378C53.7563 26.7443 54.0214 26.91 54.2511 27.1349C54.4831 27.3598 54.6654 27.6463 54.7979 27.9943C54.9305 28.34 54.9968 28.7519 54.9968 29.2301V29.6243H50.5259V28.7578H53.7646C53.7622 28.5116 53.7089 28.2926 53.6048 28.1009C53.5006 27.9067 53.355 27.754 53.168 27.6428C52.9833 27.5315 52.7679 27.4759 52.5217 27.4759C52.2589 27.4759 52.0281 27.5398 51.8292 27.6676C51.6303 27.7931 51.4753 27.9588 51.364 28.1648C51.2551 28.3684 51.1995 28.5921 51.1971 28.8359V29.5923C51.1971 29.9096 51.2551 30.1818 51.3711 30.4091C51.4871 30.634 51.6493 30.8068 51.8576 30.9276C52.0659 31.0459 52.3098 31.1051 52.5891 31.1051C52.7762 31.1051 52.9454 31.0791 53.0969 31.027C53.2485 30.9725 53.3799 30.8932 53.4911 30.7891C53.6024 30.6849 53.6864 30.5559 53.7433 30.402L54.9435 30.5369C54.8678 30.8542 54.7234 31.1312 54.5103 31.3679C54.2996 31.6023 54.0297 31.7846 53.7006 31.9148C53.3716 32.0426 52.9951 32.1065 52.5714 32.1065ZM60.8002 26.5455L58.8578 32H57.4373L55.4949 26.5455H56.8656L58.1191 30.5973H58.176L59.4331 26.5455H60.8002ZM63.8835 32.1065C63.3509 32.1065 62.8892 31.9893 62.4986 31.755C62.108 31.5206 61.8049 31.1927 61.5895 30.7713C61.3764 30.3499 61.2699 29.8575 61.2699 29.294C61.2699 28.7306 61.3764 28.237 61.5895 27.8132C61.8049 27.3894 62.108 27.0604 62.4986 26.826C62.8892 26.5916 63.3509 26.4744 63.8835 26.4744C64.4162 26.4744 64.8778 26.5916 65.2685 26.826C65.6591 27.0604 65.9609 27.3894 66.174 27.8132C66.3894 28.237 66.4972 28.7306 66.4972 29.294C66.4972 29.8575 66.3894 30.3499 66.174 30.7713C65.9609 31.1927 65.6591 31.5206 65.2685 31.755C64.8778 31.9893 64.4162 32.1065 63.8835 32.1065ZM63.8906 31.0767C64.1795 31.0767 64.4209 30.9974 64.6151 30.8388C64.8092 30.6778 64.9536 30.4624 65.0483 30.1925C65.1454 29.9226 65.1939 29.6219 65.1939 29.2905C65.1939 28.9567 65.1454 28.6548 65.0483 28.3849C64.9536 28.1127 64.8092 27.8961 64.6151 27.7351C64.4209 27.5741 64.1795 27.4936 63.8906 27.4936C63.5947 27.4936 63.3485 27.5741 63.152 27.7351C62.9579 27.8961 62.8123 28.1127 62.7152 28.3849C62.6205 28.6548 62.5732 28.9567 62.5732 29.2905C62.5732 29.6219 62.6205 29.9226 62.7152 30.1925C62.8123 30.4624 62.9579 30.6778 63.152 30.8388C63.3485 30.9974 63.5947 31.0767 63.8906 31.0767ZM71.0595 32H69.6532L72.2136 24.7273H73.84L76.4039 32H74.9977L73.0552 26.2188H72.9984L71.0595 32ZM71.1056 29.1484H74.9409V30.2067H71.1056V29.1484ZM78.5906 24.7273V32H77.305V24.7273H78.5906ZM79.9693 32V24.7273H81.2548V27.4474H81.3081C81.3743 27.3149 81.4679 27.174 81.5886 27.0249C81.7093 26.8733 81.8727 26.7443 82.0787 26.6378C82.2846 26.5289 82.5474 26.4744 82.867 26.4744C83.2884 26.4744 83.6684 26.5821 84.0069 26.7976C84.3478 27.0107 84.6177 27.3267 84.8166 27.7457C85.0178 28.1624 85.1184 28.6738 85.1184 29.2798C85.1184 29.8788 85.0202 30.3878 84.8237 30.8068C84.6272 31.2259 84.3597 31.5455 84.0211 31.7656C83.6826 31.9858 83.2991 32.0959 82.8706 32.0959C82.5581 32.0959 82.2988 32.0438 82.0929 31.9396C81.8869 31.8355 81.7212 31.71 81.5957 31.5632C81.4726 31.4141 81.3767 31.2732 81.3081 31.1406H81.2335V32H79.9693ZM81.2299 29.2727C81.2299 29.6255 81.2797 29.9344 81.3791 30.1996C81.4809 30.4647 81.6265 30.6719 81.8159 30.821C82.0076 30.9678 82.2396 31.0412 82.5119 31.0412C82.796 31.0412 83.0339 30.9654 83.2257 30.8139C83.4174 30.66 83.5618 30.4505 83.6589 30.1854C83.7583 29.9179 83.8081 29.6136 83.8081 29.2727C83.8081 28.9342 83.7595 28.6335 83.6625 28.3707C83.5654 28.108 83.421 27.902 83.2292 27.7528C83.0375 27.6037 82.7984 27.5291 82.5119 27.5291C82.2373 27.5291 82.0041 27.6013 81.8123 27.7457C81.6206 27.8902 81.475 28.0926 81.3755 28.353C81.2785 28.6134 81.2299 28.92 81.2299 29.2727ZM89.6879 29.706V26.5455H90.9734V32H89.7269V31.0305H89.6701C89.547 31.3359 89.3446 31.5857 89.0629 31.7798C88.7835 31.974 88.439 32.071 88.0295 32.071C87.672 32.071 87.3559 31.9917 87.0813 31.8331C86.8091 31.6721 86.596 31.4389 86.4421 31.1335C86.2882 30.8258 86.2113 30.4541 86.2113 30.0185V26.5455H87.4968V29.8196C87.4968 30.1652 87.5915 30.4399 87.7809 30.6435C87.9703 30.8471 88.2189 30.9489 88.5266 30.9489C88.716 30.9489 88.8995 30.9027 89.0771 30.8104C89.2546 30.718 89.4002 30.5807 89.5138 30.3984C89.6299 30.2138 89.6879 29.983 89.6879 29.706ZM92.2953 32V26.5455H93.524V27.4723H93.5879C93.7015 27.1598 93.8897 26.916 94.1525 26.7408C94.4153 26.5632 94.729 26.4744 95.0936 26.4744C95.4629 26.4744 95.7742 26.5644 96.0275 26.7443C96.2832 26.9219 96.4631 27.1645 96.5673 27.4723H96.6241C96.7449 27.1693 96.9484 26.9278 97.2349 26.7479C97.5237 26.5656 97.8658 26.4744 98.2612 26.4744C98.7631 26.4744 99.1726 26.633 99.4899 26.9503C99.8071 27.2675 99.9657 27.7304 99.9657 28.3388V32H98.6767V28.5376C98.6767 28.1991 98.5867 27.9517 98.4068 27.7955C98.2269 27.6368 98.0067 27.5575 97.7463 27.5575C97.4361 27.5575 97.1935 27.6546 97.0183 27.8487C96.8455 28.0405 96.7591 28.2902 96.7591 28.598V32H95.4984V28.4844C95.4984 28.2027 95.4132 27.9777 95.2427 27.8097C95.0746 27.6416 94.8545 27.5575 94.5822 27.5575C94.3975 27.5575 94.2295 27.6049 94.0779 27.6996C93.9264 27.7919 93.8057 27.9233 93.7157 28.0938C93.6258 28.2618 93.5808 28.4583 93.5808 28.6832V32H92.2953Z" fill="black"/>
<path opacity="0.71" d="M37.4034 65L42.2273 55.4545V55.375H36.608V53.3636H44.7727V55.4034L39.9432 65H37.4034ZM46.4588 65V63.2273L50.6009 59.392C50.9531 59.0511 51.2486 58.7443 51.4872 58.4716C51.7296 58.1989 51.9134 57.9318 52.0384 57.6705C52.1634 57.4053 52.2259 57.1193 52.2259 56.8125C52.2259 56.4716 52.1482 56.178 51.9929 55.9318C51.8376 55.6818 51.6255 55.4905 51.3565 55.358C51.0876 55.2216 50.7827 55.1534 50.4418 55.1534C50.0857 55.1534 49.7751 55.2254 49.5099 55.3693C49.2448 55.5133 49.0402 55.7197 48.8963 55.9886C48.7524 56.2576 48.6804 56.5777 48.6804 56.9489H46.3452C46.3452 56.1875 46.5175 55.5265 46.8622 54.9659C47.2069 54.4053 47.6899 53.9716 48.3111 53.6648C48.9323 53.358 49.6482 53.2045 50.4588 53.2045C51.2921 53.2045 52.0175 53.3523 52.6349 53.6477C53.2562 53.9394 53.7391 54.3447 54.0838 54.8636C54.4285 55.3826 54.6009 55.9773 54.6009 56.6477C54.6009 57.0871 54.5137 57.5208 54.3395 57.9489C54.169 58.3769 53.8641 58.8523 53.4247 59.375C52.9853 59.8939 52.366 60.517 51.5668 61.2443L49.8679 62.9091V62.9886H54.7543V65H46.4588ZM66.6207 56.7102C66.5753 56.2519 66.3802 55.8958 66.0355 55.642C65.6908 55.3883 65.223 55.2614 64.6321 55.2614C64.2306 55.2614 63.8916 55.3182 63.6151 55.4318C63.3385 55.5417 63.1264 55.6951 62.9787 55.892C62.8348 56.089 62.7628 56.3125 62.7628 56.5625C62.7552 56.7708 62.7988 56.9527 62.8935 57.108C62.992 57.2633 63.1264 57.3977 63.2969 57.5114C63.4673 57.6212 63.6643 57.7178 63.8878 57.8011C64.1113 57.8807 64.3499 57.9489 64.6037 58.0057L65.6491 58.2557C66.1567 58.3693 66.6226 58.5208 67.0469 58.7102C67.4711 58.8996 67.8385 59.1326 68.1491 59.4091C68.4598 59.6856 68.7003 60.0114 68.8707 60.3864C69.045 60.7614 69.134 61.1913 69.1378 61.6761C69.134 62.3883 68.9522 63.0057 68.5923 63.5284C68.2363 64.0473 67.7211 64.4508 67.0469 64.7386C66.3764 65.0227 65.5677 65.1648 64.6207 65.1648C63.6813 65.1648 62.8632 65.0208 62.1662 64.733C61.473 64.4451 60.9313 64.0189 60.5412 63.4545C60.1548 62.8864 59.9522 62.1837 59.9332 61.3466H62.3139C62.3404 61.7367 62.4522 62.0625 62.6491 62.3239C62.8499 62.5814 63.117 62.7765 63.4503 62.9091C63.7874 63.0379 64.1681 63.1023 64.5923 63.1023C65.009 63.1023 65.3707 63.0417 65.6776 62.9205C65.9882 62.7992 66.2287 62.6307 66.3991 62.4148C66.5696 62.1989 66.6548 61.9508 66.6548 61.6705C66.6548 61.4091 66.5772 61.1894 66.4219 61.0114C66.2704 60.8333 66.0469 60.6818 65.7514 60.5568C65.4598 60.4318 65.1018 60.3182 64.6776 60.2159L63.4105 59.8977C62.4295 59.6591 61.6548 59.286 61.0866 58.7784C60.5185 58.2708 60.2363 57.5871 60.2401 56.7273C60.2363 56.0227 60.4238 55.4072 60.8026 54.8807C61.1851 54.3542 61.7098 53.9432 62.3764 53.6477C63.0431 53.3523 63.8007 53.2045 64.6491 53.2045C65.5128 53.2045 66.2666 53.3523 66.9105 53.6477C67.5582 53.9432 68.062 54.3542 68.4219 54.8807C68.7817 55.4072 68.9673 56.017 68.9787 56.7102H66.6207ZM74.7244 65.1705C73.8267 65.1705 73.054 64.9886 72.4062 64.625C71.7623 64.2576 71.2661 63.7386 70.9176 63.0682C70.5691 62.3939 70.3949 61.5966 70.3949 60.6761C70.3949 59.7784 70.5691 58.9905 70.9176 58.3125C71.2661 57.6345 71.7566 57.1061 72.3892 56.7273C73.0256 56.3485 73.7718 56.1591 74.6278 56.1591C75.2036 56.1591 75.7396 56.2519 76.2358 56.4375C76.7358 56.6193 77.1714 56.8939 77.5426 57.2614C77.9176 57.6288 78.2093 58.0909 78.4176 58.6477C78.6259 59.2008 78.7301 59.8485 78.7301 60.5909V61.2557H71.3608V59.7557H76.4517C76.4517 59.4072 76.3759 59.0985 76.2244 58.8295C76.0729 58.5606 75.8627 58.3504 75.5938 58.1989C75.3286 58.0436 75.0199 57.9659 74.6676 57.9659C74.3002 57.9659 73.9744 58.0511 73.6903 58.2216C73.41 58.3883 73.1903 58.6136 73.0312 58.8977C72.8722 59.178 72.7907 59.4905 72.7869 59.8352V61.2614C72.7869 61.6932 72.8665 62.0663 73.0256 62.3807C73.1884 62.6951 73.4176 62.9375 73.7131 63.108C74.0085 63.2784 74.3589 63.3636 74.7642 63.3636C75.0331 63.3636 75.2794 63.3258 75.5028 63.25C75.7263 63.1742 75.9176 63.0606 76.0767 62.9091C76.2358 62.7576 76.357 62.572 76.4403 62.3523L78.679 62.5C78.5653 63.0379 78.3324 63.5076 77.9801 63.9091C77.6316 64.3068 77.1809 64.6174 76.6278 64.8409C76.0786 65.0606 75.4441 65.1705 74.7244 65.1705ZM82.7983 65.1648C82.2415 65.1648 81.7453 65.0682 81.3097 64.875C80.8741 64.678 80.5294 64.3883 80.2756 64.0057C80.0256 63.6193 79.9006 63.1383 79.9006 62.5625C79.9006 62.0777 79.9896 61.6705 80.1676 61.3409C80.3456 61.0114 80.5881 60.7462 80.8949 60.5455C81.2017 60.3447 81.5502 60.1932 81.9403 60.0909C82.3343 59.9886 82.7472 59.9167 83.179 59.875C83.6866 59.822 84.0956 59.7727 84.4062 59.7273C84.7169 59.678 84.9422 59.6061 85.0824 59.5114C85.2225 59.4167 85.2926 59.2765 85.2926 59.0909V59.0568C85.2926 58.697 85.179 58.4186 84.9517 58.2216C84.7282 58.0246 84.41 57.9261 83.9972 57.9261C83.5616 57.9261 83.215 58.0227 82.9574 58.2159C82.6998 58.4053 82.5294 58.6439 82.446 58.9318L80.2074 58.75C80.321 58.2197 80.5445 57.7614 80.8778 57.375C81.2112 56.9848 81.6411 56.6856 82.1676 56.4773C82.6979 56.2652 83.3116 56.1591 84.0085 56.1591C84.4934 56.1591 84.9574 56.2159 85.4006 56.3295C85.8475 56.4432 86.2434 56.6193 86.5881 56.858C86.9366 57.0966 87.2112 57.4034 87.4119 57.7784C87.6127 58.1496 87.7131 58.5947 87.7131 59.1136V65H85.4176V63.7898H85.3494C85.2093 64.0625 85.0218 64.303 84.7869 64.5114C84.5521 64.7159 84.2699 64.8769 83.9403 64.9943C83.6108 65.108 83.2301 65.1648 82.7983 65.1648ZM83.4915 63.4943C83.8475 63.4943 84.1619 63.4242 84.4347 63.2841C84.7074 63.1402 84.9214 62.947 85.0767 62.7045C85.232 62.4621 85.3097 62.1875 85.3097 61.8807V60.9545C85.2339 61.0038 85.1297 61.0492 84.9972 61.0909C84.8684 61.1288 84.7225 61.1648 84.5597 61.1989C84.3968 61.2292 84.2339 61.2576 84.071 61.2841C83.9081 61.3068 83.7604 61.3277 83.6278 61.3466C83.3438 61.3883 83.0956 61.4545 82.8835 61.5455C82.6714 61.6364 82.5066 61.7595 82.3892 61.9148C82.2718 62.0663 82.2131 62.2557 82.2131 62.483C82.2131 62.8125 82.3324 63.0644 82.571 63.2386C82.8134 63.4091 83.1203 63.4943 83.4915 63.4943ZM96.8523 58.7614L94.6364 58.8977C94.5985 58.7083 94.517 58.5379 94.392 58.3864C94.267 58.2311 94.1023 58.108 93.8977 58.017C93.697 57.9223 93.4564 57.875 93.1761 57.875C92.8011 57.875 92.4848 57.9545 92.2273 58.1136C91.9697 58.2689 91.8409 58.4773 91.8409 58.7386C91.8409 58.947 91.9242 59.1231 92.0909 59.267C92.2576 59.411 92.5436 59.5265 92.9489 59.6136L94.5284 59.9318C95.3769 60.1061 96.0095 60.3864 96.4261 60.7727C96.8428 61.1591 97.0511 61.6667 97.0511 62.2955C97.0511 62.8674 96.8826 63.3693 96.5455 63.8011C96.2121 64.233 95.7538 64.5701 95.1705 64.8125C94.5909 65.0511 93.9223 65.1705 93.1648 65.1705C92.0095 65.1705 91.089 64.9299 90.4034 64.4489C89.7216 63.964 89.322 63.3049 89.2045 62.4716L91.5852 62.3466C91.6572 62.6989 91.8314 62.9678 92.108 63.1534C92.3845 63.3352 92.7386 63.4261 93.1705 63.4261C93.5947 63.4261 93.9356 63.3447 94.1932 63.1818C94.4545 63.0152 94.5871 62.8011 94.5909 62.5398C94.5871 62.3201 94.4943 62.1402 94.3125 62C94.1307 61.8561 93.8504 61.7462 93.4716 61.6705L91.9602 61.3693C91.108 61.1989 90.4735 60.9034 90.0568 60.483C89.6439 60.0625 89.4375 59.5265 89.4375 58.875C89.4375 58.3144 89.589 57.8314 89.892 57.4261C90.1989 57.0208 90.6288 56.7083 91.1818 56.4886C91.7386 56.2689 92.3902 56.1591 93.1364 56.1591C94.2386 56.1591 95.1061 56.392 95.7386 56.858C96.375 57.3239 96.7462 57.9583 96.8523 58.7614ZM102.518 65.1705C101.636 65.1705 100.873 64.983 100.229 64.608C99.5885 64.2292 99.0942 63.7027 98.7457 63.0284C98.3973 62.3504 98.223 61.5644 98.223 60.6705C98.223 59.7689 98.3973 58.9811 98.7457 58.3068C99.0942 57.6288 99.5885 57.1023 100.229 56.7273C100.873 56.3485 101.636 56.1591 102.518 56.1591C103.401 56.1591 104.162 56.3485 104.803 56.7273C105.446 57.1023 105.943 57.6288 106.291 58.3068C106.64 58.9811 106.814 59.7689 106.814 60.6705C106.814 61.5644 106.64 62.3504 106.291 63.0284C105.943 63.7027 105.446 64.2292 104.803 64.608C104.162 64.983 103.401 65.1705 102.518 65.1705ZM102.53 63.2955C102.931 63.2955 103.267 63.1818 103.536 62.9545C103.804 62.7235 104.007 62.4091 104.143 62.0114C104.284 61.6136 104.354 61.161 104.354 60.6534C104.354 60.1458 104.284 59.6932 104.143 59.2955C104.007 58.8977 103.804 58.5833 103.536 58.3523C103.267 58.1212 102.931 58.0057 102.53 58.0057C102.125 58.0057 101.784 58.1212 101.507 58.3523C101.234 58.5833 101.028 58.8977 100.888 59.2955C100.751 59.6932 100.683 60.1458 100.683 60.6534C100.683 61.161 100.751 61.6136 100.888 62.0114C101.028 62.4091 101.234 62.7235 101.507 62.9545C101.784 63.1818 102.125 63.2955 102.53 63.2955ZM110.808 59.9545V65H108.388V56.2727H110.695V57.8125H110.797C110.99 57.3049 111.314 56.9034 111.768 56.608C112.223 56.3087 112.774 56.1591 113.422 56.1591C114.028 56.1591 114.556 56.2917 115.007 56.5568C115.458 56.822 115.808 57.2008 116.058 57.6932C116.308 58.1818 116.433 58.7652 116.433 59.4432V65H114.013V59.875C114.017 59.3409 113.88 58.9242 113.604 58.625C113.327 58.322 112.946 58.1705 112.462 58.1705C112.136 58.1705 111.848 58.2405 111.598 58.3807C111.352 58.5208 111.159 58.7254 111.018 58.9943C110.882 59.2595 110.812 59.5795 110.808 59.9545ZM125.602 58.7614L123.386 58.8977C123.348 58.7083 123.267 58.5379 123.142 58.3864C123.017 58.2311 122.852 58.108 122.648 58.017C122.447 57.9223 122.206 57.875 121.926 57.875C121.551 57.875 121.235 57.9545 120.977 58.1136C120.72 58.2689 120.591 58.4773 120.591 58.7386C120.591 58.947 120.674 59.1231 120.841 59.267C121.008 59.411 121.294 59.5265 121.699 59.6136L123.278 59.9318C124.127 60.1061 124.759 60.3864 125.176 60.7727C125.593 61.1591 125.801 61.6667 125.801 62.2955C125.801 62.8674 125.633 63.3693 125.295 63.8011C124.962 64.233 124.504 64.5701 123.92 64.8125C123.341 65.0511 122.672 65.1705 121.915 65.1705C120.759 65.1705 119.839 64.9299 119.153 64.4489C118.472 63.964 118.072 63.3049 117.955 62.4716L120.335 62.3466C120.407 62.6989 120.581 62.9678 120.858 63.1534C121.134 63.3352 121.489 63.4261 121.92 63.4261C122.345 63.4261 122.686 63.3447 122.943 63.1818C123.205 63.0152 123.337 62.8011 123.341 62.5398C123.337 62.3201 123.244 62.1402 123.062 62C122.881 61.8561 122.6 61.7462 122.222 61.6705L120.71 61.3693C119.858 61.1989 119.223 60.9034 118.807 60.483C118.394 60.0625 118.188 59.5265 118.188 58.875C118.188 58.3144 118.339 57.8314 118.642 57.4261C118.949 57.0208 119.379 56.7083 119.932 56.4886C120.489 56.2689 121.14 56.1591 121.886 56.1591C122.989 56.1591 123.856 56.392 124.489 56.858C125.125 57.3239 125.496 57.9583 125.602 58.7614Z" fill="black"/>
<path d="M36.9325 88.5455H39.0284L41.8352 95.3963H41.946L44.7528 88.5455H46.8487V98H45.2053V91.5046H45.1175L42.5046 97.9723H41.2766L38.6637 91.4908H38.576V98H36.9325V88.5455ZM51.7791 98.1385C51.0682 98.1385 50.4542 97.9908 49.9371 97.6953C49.4232 97.3968 49.0277 96.9751 48.7507 96.4304C48.4737 95.8826 48.3352 95.2378 48.3352 94.4961C48.3352 93.7667 48.4737 93.1265 48.7507 92.5756C49.0308 92.0217 49.4216 91.5908 49.9233 91.283C50.425 90.9722 51.0143 90.8168 51.6914 90.8168C52.1284 90.8168 52.5408 90.8875 52.9286 91.0291C53.3195 91.1676 53.6642 91.383 53.9627 91.6754C54.2643 91.9678 54.5013 92.3402 54.6737 92.7926C54.846 93.242 54.9322 93.7775 54.9322 94.3991V94.9116H49.12V93.7852H53.3303C53.3272 93.4651 53.2579 93.1804 53.1225 92.9311C52.9871 92.6787 52.7978 92.4802 52.5547 92.3356C52.3146 92.1909 52.0346 92.1186 51.7145 92.1186C51.3729 92.1186 51.0728 92.2017 50.8143 92.3679C50.5558 92.531 50.3542 92.7464 50.2095 93.0142C50.0679 93.2789 49.9956 93.5697 49.9925 93.8867V94.87C49.9925 95.2824 50.0679 95.6364 50.2188 95.9318C50.3696 96.2242 50.5804 96.4489 50.8512 96.6058C51.122 96.7597 51.439 96.8366 51.8022 96.8366C52.0453 96.8366 52.2654 96.8028 52.4624 96.7351C52.6593 96.6643 52.8301 96.5612 52.9748 96.4258C53.1194 96.2904 53.2287 96.1226 53.3026 95.9226L54.8629 96.098C54.7644 96.5104 54.5767 96.8705 54.2997 97.1783C54.0258 97.483 53.675 97.7199 53.2472 97.8892C52.8194 98.0554 52.33 98.1385 51.7791 98.1385ZM59.8868 90.9091V92.2017H55.8105V90.9091H59.8868ZM56.8169 89.2102H58.488V95.8672C58.488 96.0919 58.5219 96.2642 58.5896 96.3842C58.6604 96.5012 58.7527 96.5812 58.8666 96.6243C58.9804 96.6674 59.1066 96.6889 59.2451 96.6889C59.3498 96.6889 59.4452 96.6812 59.5313 96.6658C59.6206 96.6504 59.6883 96.6366 59.7345 96.6243L60.0161 97.9308C59.9268 97.9615 59.7991 97.9954 59.6329 98.0323C59.4698 98.0692 59.2697 98.0908 59.0328 98.0969C58.6142 98.1093 58.2372 98.0462 57.9017 97.9077C57.5663 97.7661 57.3 97.5476 57.1031 97.2521C56.9092 96.9567 56.8138 96.5874 56.8169 96.1442V89.2102ZM63.3249 98.1431C62.8756 98.1431 62.4709 98.0631 62.1108 97.9031C61.7538 97.7399 61.4706 97.4999 61.2614 97.1829C61.0552 96.8659 60.9521 96.475 60.9521 96.0103C60.9521 95.6102 61.0259 95.2794 61.1737 95.0178C61.3214 94.7562 61.523 94.5469 61.7784 94.3899C62.0339 94.233 62.3216 94.1145 62.6417 94.0344C62.9648 93.9513 63.2988 93.8913 63.6435 93.8544C64.0589 93.8113 64.396 93.7728 64.6545 93.739C64.913 93.7021 65.1007 93.6467 65.2177 93.5728C65.3377 93.4959 65.3977 93.3774 65.3977 93.2173V93.1896C65.3977 92.8419 65.2946 92.5726 65.0884 92.3817C64.8822 92.1909 64.5852 92.0955 64.1974 92.0955C63.7881 92.0955 63.4634 92.1848 63.2234 92.3633C62.9864 92.5418 62.8263 92.7526 62.7433 92.9957L61.1829 92.7741C61.306 92.3433 61.5091 91.9832 61.7923 91.6939C62.0754 91.4015 62.4216 91.183 62.831 91.0384C63.2403 90.8906 63.6927 90.8168 64.1882 90.8168C64.5298 90.8168 64.8699 90.8568 65.2085 90.9368C65.547 91.0168 65.8563 91.1491 66.1364 91.3338C66.4164 91.5154 66.6411 91.7631 66.8104 92.0771C66.9827 92.391 67.0689 92.7834 67.0689 93.2543V98H65.4624V97.0259H65.407C65.3054 97.2229 65.1623 97.4076 64.9776 97.5799C64.796 97.7492 64.5668 97.8861 64.2898 97.9908C64.0159 98.0923 63.6942 98.1431 63.3249 98.1431ZM63.7589 96.9151C64.0943 96.9151 64.3852 96.849 64.6314 96.7166C64.8776 96.5812 65.0669 96.4027 65.1992 96.1811C65.3346 95.9595 65.4023 95.7179 65.4023 95.4563V94.6207C65.35 94.6638 65.2608 94.7038 65.1346 94.7408C65.0115 94.7777 64.873 94.81 64.7191 94.8377C64.5652 94.8654 64.4129 94.89 64.2621 94.9116C64.1113 94.9331 63.9805 94.9516 63.8697 94.967C63.6204 95.0008 63.3973 95.0562 63.2003 95.1332C63.0033 95.2101 62.8479 95.3178 62.734 95.4563C62.6201 95.5917 62.5632 95.7672 62.5632 95.9826C62.5632 96.2904 62.6755 96.5227 62.9002 96.6797C63.1249 96.8366 63.4111 96.9151 63.7589 96.9151ZM70.4205 88.5455V98H68.7493V88.5455H70.4205ZM73.8101 88.5455V98H72.1389V88.5455H73.8101ZM75.5286 98V90.9091H77.1998V98H75.5286ZM76.3688 89.9027C76.1041 89.9027 75.8764 89.815 75.6855 89.6396C75.4947 89.4611 75.3993 89.2472 75.3993 88.9979C75.3993 88.7455 75.4947 88.5316 75.6855 88.3562C75.8764 88.1777 76.1041 88.0884 76.3688 88.0884C76.6365 88.0884 76.8643 88.1777 77.052 88.3562C77.2428 88.5316 77.3382 88.7455 77.3382 88.9979C77.3382 89.2472 77.2428 89.4611 77.052 89.6396C76.8643 89.815 76.6365 89.9027 76.3688 89.9027ZM82.0113 98.1385C81.3034 98.1385 80.6956 97.9831 80.1878 97.6722C79.683 97.3614 79.2937 96.9321 79.0198 96.3842C78.749 95.8333 78.6135 95.1993 78.6135 94.4822C78.6135 93.7621 78.752 93.1265 79.029 92.5756C79.306 92.0217 79.6969 91.5908 80.2016 91.283C80.7094 90.9722 81.3096 90.8168 82.002 90.8168C82.5776 90.8168 83.0869 90.9229 83.5301 91.1353C83.9764 91.3446 84.3318 91.6416 84.5965 92.0263C84.8612 92.4079 85.012 92.8542 85.0489 93.3651H83.4516C83.387 93.0234 83.2331 92.7388 82.99 92.511C82.7499 92.2802 82.4283 92.1648 82.0251 92.1648C81.6835 92.1648 81.3834 92.2571 81.1249 92.4418C80.8664 92.6233 80.6648 92.8849 80.5202 93.2266C80.3786 93.5682 80.3078 93.9775 80.3078 94.4545C80.3078 94.9377 80.3786 95.3532 80.5202 95.701C80.6617 96.0457 80.8602 96.3119 81.1157 96.4996C81.3742 96.6843 81.6773 96.7766 82.0251 96.7766C82.2713 96.7766 82.4914 96.7305 82.6853 96.6381C82.8823 96.5427 83.0469 96.4058 83.1792 96.2273C83.3116 96.0488 83.4024 95.8318 83.4516 95.5763H85.0489C85.0089 96.078 84.8612 96.5227 84.6057 96.9105C84.3503 97.2952 84.0025 97.5968 83.5624 97.8153C83.1223 98.0308 82.6053 98.1385 82.0113 98.1385ZM88.4616 98.1431C88.0123 98.1431 87.6076 98.0631 87.2475 97.9031C86.8905 97.7399 86.6074 97.4999 86.3981 97.1829C86.1919 96.8659 86.0888 96.475 86.0888 96.0103C86.0888 95.6102 86.1626 95.2794 86.3104 95.0178C86.4581 94.7562 86.6597 94.5469 86.9151 94.3899C87.1706 94.233 87.4583 94.1145 87.7784 94.0344C88.1016 93.9513 88.4355 93.8913 88.7802 93.8544C89.1957 93.8113 89.5327 93.7728 89.7912 93.739C90.0497 93.7021 90.2375 93.6467 90.3544 93.5728C90.4744 93.4959 90.5344 93.3774 90.5344 93.2173V93.1896C90.5344 92.8419 90.4313 92.5726 90.2251 92.3817C90.0189 92.1909 89.7219 92.0955 89.3342 92.0955C88.9248 92.0955 88.6001 92.1848 88.3601 92.3633C88.1231 92.5418 87.9631 92.7526 87.88 92.9957L86.3196 92.7741C86.4427 92.3433 86.6458 91.9832 86.929 91.6939C87.2121 91.4015 87.5584 91.183 87.9677 91.0384C88.377 90.8906 88.8294 90.8168 89.3249 90.8168C89.6665 90.8168 90.0066 90.8568 90.3452 90.9368C90.6837 91.0168 90.993 91.1491 91.2731 91.3338C91.5531 91.5154 91.7778 91.7631 91.9471 92.0771C92.1194 92.391 92.2056 92.7834 92.2056 93.2543V98H90.5991V97.0259H90.5437C90.4421 97.2229 90.299 97.4076 90.1143 97.5799C89.9328 97.7492 89.7035 97.8861 89.4265 97.9908C89.1526 98.0923 88.831 98.1431 88.4616 98.1431ZM88.8956 96.9151C89.2311 96.9151 89.5219 96.849 89.7681 96.7166C90.0143 96.5812 90.2036 96.4027 90.3359 96.1811C90.4714 95.9595 90.5391 95.7179 90.5391 95.4563V94.6207C90.4867 94.6638 90.3975 94.7038 90.2713 94.7408C90.1482 94.7777 90.0097 94.81 89.8558 94.8377C89.7019 94.8654 89.5496 94.89 89.3988 94.9116C89.248 94.9331 89.1172 94.9516 89.0064 94.967C88.7571 95.0008 88.534 95.0562 88.337 95.1332C88.14 95.2101 87.9846 95.3178 87.8707 95.4563C87.7569 95.5917 87.6999 95.7672 87.6999 95.9826C87.6999 96.2904 87.8123 96.5227 88.0369 96.6797C88.2616 96.8366 88.5478 96.9151 88.8956 96.9151Z" fill="black"/>
<path d="M350.023 -60.9789C336.499 -47.4874 316.647 -24.1786 348.761 -0.950516C389.628 28.6089 424.215 -3.19678 424.669 36.1342" stroke="#717171" stroke-width="0.571302"/>
<path d="M349.607 -51.5285C336.082 -38.0369 316.231 -14.7282 348.345 8.49992C389.212 38.0594 423.799 6.25366 424.253 45.5846" stroke="#717171" stroke-width="0.571302"/>
<path d="M348.626 -42.506C335.101 -29.0145 315.25 -5.70574 347.364 17.5224C388.231 47.0818 422.818 15.2761 423.272 54.6071" stroke="#717171" stroke-width="0.571302"/>
<path d="M346.96 -34.0534C333.436 -20.5618 313.584 2.74689 345.698 25.975C386.565 55.5345 421.152 23.7288 421.606 63.0597" stroke="#717171" stroke-width="0.571302"/>
<path d="M344.485 -26.349C330.96 -12.8575 311.109 10.4512 343.223 33.6794C384.09 63.2388 418.677 31.4331 419.131 70.764" stroke="#717171" stroke-width="0.571302"/>
<path d="M341.1 -19.5868C327.575 -6.09528 307.724 17.2134 339.838 40.4416C380.705 70.001 415.292 38.1953 415.745 77.5262" stroke="#717171" stroke-width="0.571302"/>
<path d="M336.775 -13.9247C323.25 -0.433175 303.399 22.8756 335.513 46.1037C376.38 75.6631 410.967 43.8574 411.421 83.1884" stroke="#717171" stroke-width="0.571302"/>
<path d="M331.58 -9.41616C318.055 4.07537 298.204 27.3841 330.317 50.6122C371.185 80.1717 405.772 48.366 406.225 87.6969" stroke="#717171" stroke-width="0.571302"/>
<path d="M325.669 -5.9728C312.144 7.51873 292.293 30.8275 324.407 54.0556C365.274 83.615 399.861 51.8093 400.314 91.1403" stroke="#717171" stroke-width="0.571302"/>
<path d="M319.233 -3.39565C305.708 10.0959 285.857 33.4046 317.971 56.6327C358.838 86.1922 393.425 54.3865 393.879 93.7174" stroke="#717171" stroke-width="0.571302"/>
<path d="M312.449 -1.44082C298.924 12.0507 279.073 35.3594 311.186 58.5876C352.054 88.147 386.641 56.3413 387.094 95.6722" stroke="#717171" stroke-width="0.571302"/>
<path d="M305.459 0.127055C291.935 13.6186 272.083 36.9273 304.197 60.1554C345.064 89.7149 379.651 57.9092 380.105 97.2401" stroke="#717171" stroke-width="0.571302"/>
<path d="M298.373 1.50547C284.848 14.997 264.997 38.3057 297.111 61.5339C337.978 91.0933 372.565 59.2876 373.018 98.6185" stroke="#717171" stroke-width="0.571302"/>
<path d="M291.271 2.85215C277.747 16.3437 257.895 39.6524 290.009 62.8805C330.876 92.44 365.463 60.6343 365.917 99.9652" stroke="#717171" stroke-width="0.571302"/>
<path d="M284.212 4.28526C270.688 17.7768 250.836 41.0855 282.95 64.3136C323.817 93.8731 358.404 62.0674 358.858 101.398" stroke="#717171" stroke-width="0.571302"/>
<path d="M277.243 5.8917C263.718 19.3832 243.867 42.692 275.981 65.9201C316.848 95.4795 351.435 63.6738 351.889 103.005" stroke="#717171" stroke-width="0.571302"/>
<path d="M270.397 7.73082C256.872 21.2223 237.021 44.5311 269.135 67.7592C310.002 97.3186 344.589 65.5129 345.042 104.844" stroke="#717171" stroke-width="0.571302"/>
<path d="M263.698 9.84336C250.173 23.3349 230.322 46.6436 262.436 69.8718C303.303 99.4312 337.89 67.6255 338.344 106.956" stroke="#717171" stroke-width="0.571302"/>
</g>
<defs>
<clipPath id="clip0_203_745">
<rect width="334" height="118" rx="30" fill="white"/>
</clipPath>
</defs>
</svg>
